<svg width="1440" height="357" viewBox="0 0 1440 357" fill="none" xmlns="http://www.w3.org/2000/svg">
<path d="M1510.85 336.345L1517.16 329.424C1524.6 321.271 1529.96 311.47 1532.05 300.632C1564.13 134.333 1550 -337.267 1546.36 -345.96C1543 -353.97 651.067 -313.955 58.7491 -286.076C-51.4243 -280.89 -133.898 -183.571 -121.386 -73.9877C-117.012 -35.6768 -124.35 3.06036 -142.433 37.117L-175.643 99.6605C-188.772 124.387 -192.542 153.02 -186.262 180.303L-171.927 242.573C-145.597 356.948 19.998 348.513 34.5706 232.056L47.8726 125.752C51.152 99.5444 80.4597 85.5307 102.917 99.4318C115.348 107.126 131.185 106.6 143.077 98.0971L164.522 82.7642C194.826 61.0976 236.379 64.6493 262.566 91.1445L305.498 134.581C357.344 187.038 439.971 193.125 498.944 148.833L581.857 86.5609C623.076 55.6031 681.589 63.9344 712.53 105.167L758.019 165.787C785.179 201.982 841.974 191.829 854.912 148.466L864.242 117.197C875.913 78.0806 930.198 75.1873 945.96 112.841C955.887 136.553 984.116 146.511 1006.72 134.276L1028.13 122.69C1039.6 116.485 1053.81 118.863 1062.63 128.464C1075.67 142.648 1098.73 140.058 1108.3 123.335L1126.01 92.3587C1149.56 51.1741 1210.83 57.6077 1225.31 102.786L1257.37 202.787C1266.98 232.763 1309.71 231.822 1317.99 201.452C1326.54 170.095 1371.15 170.486 1379.15 201.988L1406.63 310.227C1418.59 357.315 1478.1 372.229 1510.85 336.345Z" fill="#FFEA71"/>
</svg>
