<svg width="490" height="451" viewBox="0 0 490 451" fill="none" xmlns="http://www.w3.org/2000/svg">
<path d="M78.1311 171.446L83.4867 131.993C86.8515 107.205 108.017 88.7183 133.032 88.7183L214.891 88.7182C218.307 88.7182 221.714 88.3681 225.059 87.6734L341.044 63.583C363.817 58.8532 386.843 70.4501 396.6 91.5627L420.685 143.678C425.512 154.123 426.588 165.914 423.733 177.061L420.444 189.9C418.685 196.769 418.407 203.933 419.628 210.918L425.447 244.2C428.62 262.349 421.556 280.772 407.062 292.147L356.301 331.98C352.449 335.003 347.693 336.647 342.796 336.647L333.624 336.647C321.564 336.647 313.726 349.344 319.13 360.126C322.927 367.702 320.249 376.926 312.984 381.29L299.986 389.097C288.708 395.872 274.463 395.198 263.874 387.39L240.525 370.17C227.648 360.674 211.003 357.913 195.75 362.745L130.068 383.55C101.809 392.501 72.0116 375.042 66.0063 346.014L49.5172 266.311C47.4618 256.376 48.4775 246.05 52.4294 236.706L74.6364 184.197C76.3606 180.12 77.5357 175.833 78.1311 171.446Z" fill="#FFC260"/>
<path d="M72.7189 162.888L78.7121 118.737C82.0769 93.9494 103.243 75.4627 128.258 75.4627L216.987 75.4627C220.403 75.4627 223.81 75.1126 227.155 74.4179L351.548 48.5811C374.321 43.8513 397.347 55.4482 407.104 76.5608L433.724 134.161C438.551 144.607 439.627 156.397 436.772 167.544L432.938 182.512C431.178 189.381 430.9 196.546 432.121 203.531L438.615 240.67C441.788 258.819 434.724 277.242 420.23 288.616L365.563 331.515C361.508 334.698 356.502 336.427 351.347 336.427L341.693 336.427C328.999 336.427 320.748 349.792 326.436 361.141C330.434 369.116 327.615 378.824 319.967 383.418L306.287 391.636C294.416 398.766 279.421 398.057 268.276 389.838L242.621 370.919C229.744 361.422 213.099 358.662 197.846 363.493L124.656 386.677C96.3967 395.628 66.5994 378.168 60.594 349.141L42.4817 261.591C40.4262 251.656 41.4419 241.33 45.3939 231.986L69.2242 175.639C70.9483 171.562 72.1235 167.274 72.7189 162.888Z" stroke="#6E62DD" stroke-width="3" stroke-linecap="round" stroke-dasharray="8 8"/>
</svg>
