<svg width="440" height="338" viewBox="0 0 440 338" fill="none" xmlns="http://www.w3.org/2000/svg">
<path d="M115.452 326.522L39.8358 265.753C35.214 262.039 31.3003 257.47 28.2841 252.268L11.6427 223.567C4.84282 211.839 3.01637 197.621 6.5844 184.19L31.0854 91.9575C32.2536 87.5598 32.8458 83.0335 32.8458 78.5023L32.8458 51.0091C32.8458 34.9841 46.5396 22.3084 61.8432 24.1675C66.3177 24.711 70.882 24.0025 75.0651 22.1149L104.168 8.98219C113.665 4.69692 124.072 11.6579 124.072 22.2952C124.072 31.5259 132.056 38.3408 140.844 36.6103L251.661 14.7872C264.561 12.2468 277.773 15.123 288.368 22.7782L346.532 64.805C354.328 70.4385 363.646 73.4528 373.263 73.4528C410.345 73.4528 432.21 115.406 412.323 148.397L375.239 209.915C372.91 213.778 371.078 217.933 369.791 222.268L351.893 282.573C342.419 314.492 305.826 328.244 279.807 309.663C267.389 300.795 251.429 298.86 237.022 304.476L162.366 333.578C146.391 339.805 128.662 337.138 115.452 326.522Z" fill="#FFC260"/>
<path d="M115.925 326.363L37.4673 265.995C32.5539 262.215 28.3994 257.485 25.2233 252.056L8.96008 224.257C1.85157 212.107 0.110186 197.272 4.16628 183.418L31.713 89.3329C33.0334 84.8233 33.752 80.1625 33.8487 75.4822L34.4082 48.4037C34.7586 31.4448 49.1208 18.1109 65.3628 19.665C70.0669 20.1152 74.835 19.3039 79.2117 17.3088L111.023 2.80748C120.504 -1.51458 130.894 5.57298 130.674 16.2132C130.481 25.5237 138.556 32.465 147.394 30.5868L265.918 5.40072C278.662 2.69269 291.792 5.28914 302.449 12.6247L363.209 54.449C371.137 59.9068 380.533 62.7117 390.166 62.4963C428.294 61.644 450.913 105.122 429.735 138.556L389.85 201.521C387.468 205.282 385.563 209.338 384.185 213.585L363.281 278.006C352.849 310.157 315.975 323.924 289.149 305.684L288.087 304.962C275.116 296.143 258.699 294.401 243.916 300.274L162.347 332.68C146.639 338.921 129.154 336.542 115.925 326.363Z" stroke="#6E62DD" stroke-width="3" stroke-linecap="round" stroke-dasharray="8 8"/>
</svg>
