<svg width="450" height="346" viewBox="0 0 450 346" fill="none" xmlns="http://www.w3.org/2000/svg">
<path d="M324.456 72.6356L371.036 93.9393C384.438 100.069 391.683 114.777 388.374 129.138C386.932 135.396 387.466 141.947 389.903 147.889L422.578 227.549C431.272 248.743 424.451 273.133 406.025 286.743L383.828 303.138C373.686 310.628 361.09 314.011 348.561 312.609L347.964 312.542C340.299 311.684 332.54 312.611 325.293 315.251L313.207 319.653C295.359 326.153 275.37 321.979 261.615 308.88L253.09 300.761C236.122 284.603 210.208 282.395 190.751 295.45L172.437 307.737C159.823 316.201 144.045 318.471 129.556 313.907L66.9694 294.191C53.174 289.846 41.9363 279.739 36.1571 266.48L25.4705 241.963C14.4365 216.649 26.0128 187.183 51.3268 176.149L66.0715 169.722C77.1326 164.901 86.0771 156.242 91.255 145.344L123.437 77.605C128.615 66.7062 137.559 58.0475 148.62 53.2261L231.733 16.9987C257.047 5.96473 286.513 17.541 297.547 42.855L299.416 47.1442C304.338 58.4354 313.254 67.5126 324.456 72.6356Z" fill="#FFC260"/>
<path d="M333.794 68.4555L386.431 92.529C401.102 99.2388 409.032 115.34 405.409 131.06C403.831 137.91 404.416 145.082 407.084 151.585L444.252 242.199C452.945 263.392 446.124 287.783 427.698 301.392L398.939 322.634C388.798 330.124 376.202 333.507 363.673 332.105L360.071 331.702C352.407 330.844 344.647 331.771 337.4 334.41L320.369 340.613C302.521 347.113 282.532 342.939 268.777 329.84L254.57 316.311C237.602 300.153 211.689 297.944 192.231 310.999L167.143 327.833C154.528 336.296 138.75 338.566 124.262 334.002L51.525 311.089C37.7296 306.744 26.4919 296.637 20.7126 283.378L6.26211 250.226C-4.77184 224.912 6.80443 195.446 32.1184 184.412L54.2214 174.778C65.2826 169.957 74.2271 161.298 79.405 150.399L116.154 73.0485C121.331 62.1497 130.276 53.491 141.337 48.6696L238.28 6.41384C263.594 -4.62011 293.06 6.95618 304.094 32.2702L308.755 42.9641C313.677 54.2553 322.593 63.3325 333.794 68.4555Z" stroke="#6E62DD" stroke-width="3" stroke-linecap="round" stroke-dasharray="8 8"/>
</svg>
