<svg width="576" height="627" viewBox="0 0 576 627" fill="none" xmlns="http://www.w3.org/2000/svg">
<path d="M182.452 491.522L106.836 430.753C102.214 427.038 98.3004 422.47 95.2841 417.268L78.6428 388.567C71.8428 376.839 70.0164 362.621 73.5844 349.19L98.0854 256.957C99.2536 252.56 99.8458 248.034 99.8458 243.502L99.8458 216.009C99.8458 199.984 113.54 187.308 128.843 189.167C133.318 189.711 137.882 189.002 142.065 187.115L171.168 173.982C180.665 169.697 191.072 176.658 191.072 187.295C191.072 196.526 199.056 203.341 207.844 201.61L318.661 179.787C331.561 177.247 344.773 180.123 355.368 187.778L413.532 229.805C421.328 235.438 430.646 238.453 440.263 238.453C477.345 238.453 499.21 280.406 479.323 313.397L442.239 374.915C439.91 378.778 438.078 382.933 436.791 387.268L418.893 447.573C409.419 479.492 372.826 493.244 346.807 474.663C334.389 465.795 318.429 463.86 304.022 469.476L229.366 498.577C213.391 504.805 195.662 502.138 182.452 491.522Z" fill="#FFC260"/>
<path d="M182.925 491.363L104.467 430.995C99.554 427.215 95.3995 422.485 92.2233 417.056L75.9601 389.257C68.8516 377.107 67.1102 362.272 71.1663 348.418L98.713 254.333C100.033 249.823 100.752 245.163 100.849 240.482L101.408 213.404C101.759 196.445 116.121 183.111 132.363 184.665C137.067 185.115 141.835 184.304 146.212 182.309L178.023 167.807C187.504 163.485 197.894 170.573 197.674 181.213C197.481 190.524 205.556 197.465 214.394 195.587L332.918 170.401C345.662 167.693 358.792 170.289 369.449 177.625L430.209 219.449C438.137 224.907 447.533 227.712 457.166 227.496C495.294 226.644 517.913 270.122 496.735 303.556L456.85 366.521C454.468 370.282 452.563 374.338 451.185 378.585L430.282 443.006C419.849 475.157 382.975 488.924 356.149 470.684L355.087 469.962C342.116 461.143 325.699 459.401 310.916 465.274L229.347 497.68C213.639 503.921 196.154 501.542 182.925 491.363Z" stroke="#6E62DD" stroke-width="3" stroke-linecap="round" stroke-dasharray="8 8"/>
</svg>
