<svg width="1440" height="707" viewBox="0 0 1440 707" fill="none" xmlns="http://www.w3.org/2000/svg">
<path d="M1322.07 120.095L1481.96 174.936C1518.05 187.315 1532.28 230.785 1510.49 262.108C1501.13 275.561 1497.97 292.369 1501.78 308.306L1538.84 463.03C1556.69 537.589 1529.8 615.747 1469.86 663.541C1407.82 713.001 1322.22 720.557 1252.47 682.728L1185.1 646.184C1158.2 631.592 1128.31 623.369 1097.73 622.146L932.45 615.537C903.616 614.384 875.373 607.005 849.66 593.907L823.552 580.607C773.897 555.313 715.94 551.883 663.648 571.142L558.483 609.876C514.687 626.007 466.628 626.313 422.631 610.741L143.612 511.989C119.745 503.542 93.2522 507.351 72.732 522.179C29.9269 553.112 -30.6037 532.823 -46.1195 482.341L-76.5827 383.228C-84.2209 358.377 -85.3297 331.977 -79.8022 306.572L-66.2656 244.358C-57.8133 205.511 -37.9752 170.064 -9.28433 142.544L3.37991 130.396C52.8796 82.916 123.257 64.1135 189.841 80.5803L436.999 141.705C475.009 151.105 514.702 134.594 534.833 101.01C562.296 55.1921 623.622 43.6625 665.85 76.3782L691.656 96.3705C726.736 123.548 774.091 128.764 814.246 109.873L862.222 87.3025C889.853 74.3031 920.095 67.8035 950.628 68.3022L1025.73 69.5287C1051.79 69.9543 1077.23 61.6069 1097.97 45.8281L1134.87 17.7546C1182.58 -18.5402 1251.86 4.80053 1267.88 62.5657C1275.35 89.5035 1295.62 111.026 1322.07 120.095Z" fill="#6E62DD"/>
</svg>
