<svg width="402" height="352" viewBox="0 0 402 352" fill="none" xmlns="http://www.w3.org/2000/svg">
<path d="M39.1311 125.447L44.4867 85.9928C47.8515 61.205 69.0172 42.7183 94.0323 42.7183L175.891 42.7183C179.307 42.7183 182.714 42.3682 186.059 41.6735L302.044 17.5831C324.816 12.8532 347.843 24.4501 357.6 45.5628L381.685 97.6782C386.512 108.123 387.588 119.914 384.733 131.061L381.444 143.9C379.685 150.769 379.407 157.934 380.628 164.918L386.447 198.2C389.62 216.349 382.556 234.772 368.062 246.147L317.301 285.98C313.449 289.003 308.693 290.647 303.796 290.647H294.624C282.564 290.647 274.725 303.344 280.13 314.126C283.927 321.702 281.249 330.926 273.984 335.29L260.986 343.097C249.708 349.872 235.463 349.198 224.874 341.39L201.525 324.17C188.648 314.674 172.003 311.913 156.75 316.745L91.0678 337.55C62.8089 346.501 33.0116 329.042 27.0062 300.014L10.5172 220.311C8.46176 210.376 9.47746 200.05 13.4294 190.706L35.6364 138.197C37.3605 134.12 38.5357 129.833 39.1311 125.447Z" fill="#FFC260"/>
<path d="M33.7189 116.888L39.7121 72.7372C43.0769 47.9494 64.2426 29.4627 89.2577 29.4627L177.987 29.4627C181.403 29.4627 184.81 29.1126 188.155 28.4179L312.548 2.58111C335.321 -2.14872 358.347 9.44814 368.104 30.5608L394.724 88.1615C399.551 98.6067 400.627 110.397 397.772 121.544L393.938 136.512C392.178 143.381 391.9 150.546 393.121 157.531L399.615 194.67C402.788 212.819 395.724 231.242 381.23 242.616L326.563 285.515C322.508 288.698 317.502 290.427 312.347 290.427H302.693C289.999 290.427 281.748 303.792 287.436 315.141C291.434 323.116 288.615 332.824 280.967 337.418L267.287 345.636C255.416 352.766 240.421 352.057 229.276 343.838L203.621 324.919C190.744 315.422 174.099 312.662 158.846 317.493L85.6556 340.677C57.3967 349.628 27.5994 332.168 21.594 303.141L3.48168 215.591C1.42624 205.656 2.44194 195.33 6.39388 185.986L30.2242 129.639C31.9483 125.562 33.1235 121.274 33.7189 116.888Z" stroke="#6E62DD" stroke-width="3" stroke-linecap="round" stroke-dasharray="8 8"/>
</svg>
