<svg width="538" height="501" viewBox="0 0 538 501" fill="none" xmlns="http://www.w3.org/2000/svg">
<path d="M370.456 114.636L417.036 135.939C430.438 142.069 437.683 156.777 434.374 171.138C432.932 177.396 433.466 183.947 435.903 189.889L468.578 269.549C477.272 290.743 470.451 315.133 452.025 328.743L429.827 345.138C419.686 352.628 407.09 356.011 394.561 354.609L393.964 354.542C386.299 353.684 378.54 354.611 371.293 357.251L359.207 361.653C341.359 368.153 321.37 363.979 307.615 350.88L299.09 342.761C282.122 326.603 256.208 324.395 236.751 337.45L218.437 349.737C205.823 358.201 190.045 360.471 175.556 355.907L112.969 336.191C99.174 331.846 87.9363 321.739 82.157 308.48L71.4705 283.963C60.4365 258.649 72.0128 229.183 97.3268 218.149L112.071 211.722C123.133 206.901 132.077 198.242 137.255 187.344L169.437 119.605C174.615 108.706 183.559 100.047 194.62 95.2261L277.733 58.9987C303.047 47.9647 332.513 59.541 343.547 84.855L345.416 89.1442C350.338 100.435 359.254 109.513 370.456 114.636Z" fill="#FFC260"/>
<path d="M379.794 110.455L432.431 134.529C447.102 141.239 455.032 157.34 451.409 173.06C449.831 179.91 450.416 187.082 453.084 193.585L490.252 284.199C498.945 305.392 492.124 329.783 473.698 343.392L444.94 364.634C434.798 372.124 422.202 375.507 409.673 374.105L406.071 373.702C398.407 372.844 390.647 373.771 383.4 376.41L366.369 382.613C348.521 389.113 328.532 384.939 314.777 371.84L300.57 358.311C283.602 342.153 257.689 339.945 238.231 352.999L213.143 369.833C200.528 378.296 184.75 380.566 170.262 376.002L97.525 353.089C83.7296 348.744 72.4919 338.637 66.7126 325.378L52.2621 292.226C41.2282 266.912 52.8044 237.446 78.1184 226.412L100.221 216.778C111.283 211.957 120.227 203.298 125.405 192.399L162.154 115.048C167.331 104.15 176.276 95.491 187.337 90.6696L284.28 48.4139C309.594 37.3799 339.06 48.9562 350.094 74.2702L354.755 84.9641C359.677 96.2553 368.593 105.333 379.794 110.455Z" stroke="#6E62DD" stroke-width="3" stroke-linecap="round" stroke-dasharray="8 8"/>
</svg>
