<svg width="37" height="38" viewBox="0 0 37 38" fill="none" xmlns="http://www.w3.org/2000/svg">
<g clip-path="url(#clip0_23_32)">
<path d="M18.5 0.692383C11.3275 0.692383 5.49219 6.52769 5.49219 13.7002C5.49219 16.1236 6.16346 18.4885 7.43389 20.5403L17.7596 37.1799C17.9574 37.4987 18.3058 37.6924 18.6806 37.6924C18.6835 37.6924 18.6863 37.6924 18.6892 37.6924C19.0672 37.6894 19.4164 37.4897 19.6106 37.1654L29.6731 20.3645C30.8734 18.3561 31.5078 16.0516 31.5078 13.7002C31.5078 6.52769 25.6725 0.692383 18.5 0.692383ZM27.8126 19.2515L18.6642 34.5261L9.27652 19.3981C8.21906 17.6903 7.6457 15.72 7.6457 13.7002C7.6457 7.72311 12.5229 2.8459 18.5 2.8459C24.4771 2.8459 29.3471 7.72311 29.3471 13.7002C29.3471 15.6601 28.8115 17.58 27.8126 19.2515Z" fill="#6E62DD"/>
<path d="M18.5 7.19629C14.9137 7.19629 11.9961 10.1139 11.9961 13.7002C11.9961 17.2635 14.8663 20.2041 18.5 20.2041C22.1785 20.2041 25.0039 17.2244 25.0039 13.7002C25.0039 10.1139 22.0863 7.19629 18.5 7.19629ZM18.5 18.0506C16.0967 18.0506 14.1496 16.097 14.1496 13.7002C14.1496 11.3094 16.1092 9.3498 18.5 9.3498C20.8908 9.3498 22.8432 11.3094 22.8432 13.7002C22.8432 16.0621 20.9414 18.0506 18.5 18.0506Z" fill="#6E62DD"/>
</g>
<defs>
<clipPath id="clip0_23_32">
<rect width="37" height="37" fill="white" transform="translate(0 0.692383)"/>
</clipPath>
</defs>
</svg>
