<svg width="37" height="38" viewBox="0 0 37 38" fill="none" xmlns="http://www.w3.org/2000/svg">
<path d="M33.748 6.51758H3.25195C1.45883 6.51758 0 7.9764 0 9.76953V28.6151C0 30.4082 1.45883 31.8671 3.25195 31.8671H33.748C35.5412 31.8671 37 30.4082 37 28.6151V9.76953C37 7.9764 35.5412 6.51758 33.748 6.51758ZM33.3236 8.68555L32.8896 9.04695L19.7902 19.9548C19.0426 20.5773 17.9573 20.5773 17.2098 19.9548L4.1104 9.04695L3.67637 8.68555H33.3236ZM2.16797 10.2507L12.841 19.1381L2.16797 26.2413V10.2507ZM33.748 29.6991H3.25195C2.72817 29.6991 2.2901 29.3256 2.18972 28.8311L14.5793 20.5855L15.8226 21.6208C16.5983 22.2667 17.5492 22.5897 18.5001 22.5897C19.4509 22.5897 20.4018 22.2667 21.1776 21.6208L22.4208 20.5855L34.8104 28.831C34.7099 29.3257 34.2718 29.6991 33.748 29.6991ZM34.832 26.2413L24.159 19.1382L34.832 10.2507V26.2413Z" fill="#6E62DD"/>
</svg>
