<svg width="37" height="38" viewBox="0 0 37 38" fill="none" xmlns="http://www.w3.org/2000/svg">
<g clip-path="url(#clip0_23_11)">
<path d="M29.2417 23.6125C28.4842 22.8238 27.5705 22.4021 26.6022 22.4021C25.6417 22.4021 24.7202 22.816 23.9315 23.6047L21.4638 26.0646C21.2608 25.9553 21.0577 25.8538 20.8625 25.7522C20.5814 25.6117 20.3159 25.4789 20.0894 25.3384C17.7779 23.8702 15.6773 21.957 13.6625 19.4815C12.6864 18.2477 12.0304 17.2091 11.554 16.1548C12.1944 15.5692 12.7879 14.9601 13.3658 14.3744C13.5844 14.1557 13.8031 13.9293 14.0217 13.7106C15.6616 12.0707 15.6616 9.94661 14.0217 8.3067L11.8898 6.17482C11.6478 5.93273 11.3979 5.68284 11.1636 5.43295C10.695 4.94879 10.2031 4.449 9.69548 3.98046C8.938 3.23078 8.03214 2.83252 7.07943 2.83252C6.12672 2.83252 5.20525 3.23078 4.42434 3.98046C4.41653 3.98827 4.41653 3.98827 4.40872 3.99608L1.75363 6.6746C0.75406 7.67416 0.183995 8.89238 0.0590498 10.3058C-0.128369 12.5861 0.543214 14.7102 1.05861 16.1002C2.32369 19.5128 4.21349 22.6754 7.03258 26.0646C10.453 30.1488 14.5684 33.3739 19.2694 35.6464C21.0655 36.4976 23.4629 37.5049 26.1415 37.6767C26.3054 37.6845 26.4772 37.6924 26.6334 37.6924C28.4373 37.6924 29.9523 37.0442 31.1393 35.7557C31.1471 35.7401 31.1627 35.7323 31.1705 35.7167C31.5766 35.2247 32.0451 34.7796 32.5371 34.3032C32.8729 33.983 33.2165 33.6472 33.5523 33.2958C34.3254 32.4915 34.7315 31.5544 34.7315 30.5939C34.7315 29.6256 34.3176 28.6963 33.5289 27.9154L29.2417 23.6125ZM32.0373 31.8355C32.0295 31.8355 32.0295 31.8433 32.0373 31.8355C31.7328 32.1635 31.4204 32.4603 31.0846 32.7882C30.577 33.2724 30.0616 33.78 29.5775 34.3501C28.7887 35.1934 27.8595 35.5917 26.6412 35.5917C26.5241 35.5917 26.3992 35.5917 26.282 35.5839C23.9627 35.4355 21.8074 34.5297 20.1909 33.7566C15.771 31.6169 11.8898 28.5791 8.66468 24.7292C6.00178 21.5197 4.2213 18.5522 3.04213 15.3661C2.31588 13.4217 2.05037 11.9067 2.16751 10.4776C2.2456 9.56397 2.59701 8.80648 3.24516 8.15833L5.90807 5.49542C6.29071 5.1362 6.69679 4.94098 7.09505 4.94098C7.58703 4.94098 7.98529 5.23772 8.23518 5.48761C8.24299 5.49542 8.2508 5.50323 8.25861 5.51104C8.73496 5.95616 9.18789 6.4169 9.66425 6.90887C9.90633 7.15876 10.1562 7.40865 10.4061 7.66635L12.538 9.79824C13.3658 10.626 13.3658 11.3913 12.538 12.2191C12.3115 12.4455 12.0929 12.672 11.8664 12.8906C11.2104 13.5622 10.5857 14.187 9.90633 14.7961C9.89071 14.8117 9.87509 14.8195 9.86728 14.8351C9.1957 15.5067 9.32065 16.1627 9.46121 16.6078C9.46902 16.6312 9.47683 16.6546 9.48464 16.6781C10.0391 18.0212 10.82 19.2863 12.007 20.7935L12.0148 20.8013C14.1701 23.4564 16.4425 25.5258 18.9493 27.111C19.2694 27.3141 19.5974 27.478 19.9098 27.6342C20.1909 27.7748 20.4564 27.9075 20.6829 28.0481C20.7141 28.0637 20.7454 28.0872 20.7766 28.1028C21.0421 28.2355 21.292 28.298 21.5497 28.298C22.1979 28.298 22.6039 27.8919 22.7367 27.7592L25.4074 25.0885C25.6729 24.823 26.0946 24.5028 26.5866 24.5028C27.0707 24.5028 27.469 24.8073 27.7111 25.0728C27.7189 25.0807 27.7189 25.0807 27.7267 25.0885L32.0295 29.3913C32.8339 30.1878 32.8339 31.0078 32.0373 31.8355Z" fill="#6E62DD"/>
<path d="M19.9957 9.49368C22.0417 9.83728 23.9002 10.8056 25.384 12.2893C26.8677 13.7731 27.8282 15.6316 28.1796 17.6776C28.2655 18.193 28.7107 18.5522 29.2183 18.5522C29.2807 18.5522 29.3354 18.5444 29.3979 18.5366C29.9757 18.4429 30.3584 17.8963 30.2647 17.3184C29.843 14.8429 28.6716 12.5861 26.8833 10.7978C25.095 9.00952 22.8382 7.83815 20.3627 7.41646C19.7849 7.32275 19.246 7.70539 19.1445 8.27546C19.043 8.84552 19.4178 9.39997 19.9957 9.49368Z" fill="#6E62DD"/>
<path d="M36.957 17.0139C36.262 12.9375 34.341 9.22819 31.3892 6.27635C28.4373 3.3245 24.728 1.40347 20.6516 0.708455C20.0816 0.606937 19.5427 0.997392 19.4412 1.56746C19.3475 2.14533 19.7302 2.68416 20.308 2.78568C23.9471 3.4026 27.2659 5.12841 29.9054 7.76008C32.5449 10.3996 34.2629 13.7184 34.8798 17.3575C34.9657 17.8729 35.4108 18.2321 35.9184 18.2321C35.9809 18.2321 36.0356 18.2243 36.098 18.2165C36.6681 18.1306 37.0586 17.5839 36.957 17.0139Z" fill="#6E62DD"/>
</g>
<defs>
<clipPath id="clip0_23_11">
<rect width="37" height="37" fill="white" transform="translate(0 0.692383)"/>
</clipPath>
</defs>
</svg>
