<svg width="722" height="582" viewBox="0 0 722 582" fill="none" xmlns="http://www.w3.org/2000/svg">
<path d="M281.121 53.6967L354.065 24.5231C383.756 12.6483 416.339 10.0046 447.556 16.9374L477.406 23.5666C498.428 28.2351 520.441 24.5695 538.815 13.3407C594.244 -20.5323 665.372 19.3591 665.372 84.3184V94.3499C665.372 107.275 668.194 120.044 673.639 131.766L703.196 195.389C715.765 222.443 710.738 254.524 690.623 276.553C662.858 306.96 665.289 354.423 696.223 381.598C731.54 412.624 729.088 468.362 691.183 496.166L682.257 502.714C679.113 505.02 676.136 507.547 673.35 510.274L666.635 516.846C616.024 566.387 544.24 587.784 474.765 574.04L399.639 559.178L331.925 548.011C296.435 542.159 260.046 545.228 226.038 556.944L176.583 573.981C136.81 587.682 92.7863 579.968 60.042 553.559C15.5763 517.697 1.88197 455.818 27.0633 404.542L41.6799 374.779C45.5931 366.811 50.2952 359.255 55.7158 352.225L87.9441 310.427C117.33 272.316 108.415 217.306 68.4961 190.427L49.5807 177.69C24.5992 160.869 16.5382 127.79 30.9802 101.362C41.2048 82.6509 60.8268 71.0128 82.149 71.0128H191.195C221.999 71.0128 252.52 65.1357 281.121 53.6967Z" stroke="#FF7474" stroke-dasharray="12 12"/>
<path d="M265.483 66.2303L338.503 37.8753C368.251 26.3233 400.735 23.7514 431.93 30.4781L462.322 37.0314C483.006 41.4915 504.612 37.97 522.809 27.1726C578.727 -6.0062 649.5 34.2944 649.5 99.3144V104.831C649.5 117.831 652.412 130.665 658.023 142.392L687.118 203.201C699.705 229.507 694.775 260.906 674.797 282.15C647.226 311.466 649.69 357.977 680.309 384.094C715.19 413.847 712.804 468.465 675.46 495.062L661.647 504.9C604.127 559.566 523.764 583.119 445.835 568.151L384.107 556.294L316.307 545.438C280.945 539.776 244.738 542.752 210.775 554.112L158.777 571.504C120.518 584.301 78.3904 577.036 46.6281 552.164C1.50454 516.828 -12.3663 454.534 13.5014 403.392L26.6567 377.383C30.5309 369.723 35.1728 362.476 40.5109 355.754L72.2605 315.774C101.641 278.776 92.8702 224.53 53.3266 198.677L34.5947 186.431C9.76274 170.196 1.77322 137.487 16.3244 111.632C26.3063 93.8966 45.0766 82.9218 65.4286 82.9218H176.389C206.865 82.9218 237.075 77.262 265.483 66.2303Z" fill="#6E62DD"/>
</svg>
