<svg width="572" height="372" viewBox="0 0 572 372" fill="none" xmlns="http://www.w3.org/2000/svg">
<path d="M28.8369 252.014L14.7151 226.629C-0.375482 199.503 -3.20057 167.234 6.94681 137.899L29.6205 72.3498C30.8301 68.8531 31.6558 65.2353 32.0832 61.5601L33.1044 52.7796C36.7379 21.5385 70.512 3.5954 98.4338 18.0723C108.349 23.2129 119.823 24.4779 130.619 21.6205L189.656 5.99634C213.16 -0.223933 238.218 4.60887 257.722 19.1241C285.558 39.8394 323.589 40.196 351.808 20.0062L355.356 17.468C385.476 -4.08153 426.024 -3.86931 455.917 17.9943L497.68 48.5403C502.55 52.1019 507.735 55.2104 513.171 57.827L516.004 59.1904C581.587 90.7576 590.32 180.631 532.04 224.233C527.356 227.737 522.999 231.658 519.022 235.947L496.164 260.599C486.941 270.545 480.768 282.929 478.377 296.281C474.231 319.438 458.859 339.026 437.352 348.56L411.085 360.204C373.729 376.763 330.353 371.952 297.534 347.608C263.271 322.194 217.648 318.151 179.449 337.144L152.022 350.781C147.792 352.884 143.371 354.58 138.819 355.846L91.3849 369.034C49.3234 380.728 12.732 338.015 30.7431 298.247C37.4655 283.404 36.7584 266.253 28.8369 252.014Z" stroke="#FF7474" stroke-linecap="round" stroke-dasharray="12 12"/>
</svg>
