<svg width="1440" height="348" viewBox="0 0 1440 348" fill="none" xmlns="http://www.w3.org/2000/svg">
<path d="M10.3035 50.0685L-5.68556 73.7065C-8.4397 77.7782 -10.4149 82.2061 -11.5645 86.9854C-47.9292 238.161 -116.493 529.103 -112.861 537.96C-109.468 546.236 822.746 503.25 1400.62 475.346C1477.94 471.613 1535.73 403.389 1527.13 326.457L1516.73 233.446C1515.05 218.484 1502.4 207.17 1487.35 207.17C1471.9 207.17 1459.06 195.279 1457.87 179.879L1448.37 56.4919C1444.21 2.47256 1366.03 -0.311035 1358.04 53.2756L1355.86 67.8669C1352.04 93.4988 1323.13 106.741 1301.22 92.8946C1288.78 85.0303 1272.79 85.5657 1260.91 94.245L1241.2 108.634C1211.47 130.336 1170.15 126.031 1145.54 98.6687L1100.68 48.8C1051.27 -6.12561 968.63 -15.5043 908.172 26.9533L767.506 125.739C733.653 149.512 686.536 136.846 669.167 99.3028L643.109 42.9782C626.4 6.86234 573.591 11.6481 562.43 49.8446C550.503 90.6632 492.097 90.8795 480.303 50.0222C470.568 16.3012 426.009 8.35443 405.772 37.0305L390.676 58.4207C382.925 69.4046 366.98 70.348 357.988 60.3547C347.509 48.7099 328.423 52.2658 322.841 66.9031L294.656 140.81C274.199 194.45 196.247 187.673 185.354 131.307L165.333 27.7125C158.727 -6.46838 110.435 -8.15921 101.455 25.4759L95.6188 47.3354C89.9988 68.3846 61.4681 71.5947 51.3111 52.3206C42.8803 36.3219 20.4356 35.0893 10.3035 50.0685Z" fill="#FF7474"/>
</svg>
