<svg width="37" height="37" viewBox="0 0 37 37" fill="none" xmlns="http://www.w3.org/2000/svg">
<path d="M33.748 5.8252H3.25195C1.45883 5.8252 0 7.28402 0 9.07715V27.9227C0 29.7158 1.45883 31.1747 3.25195 31.1747H33.748C35.5412 31.1747 37 29.7158 37 27.9227V9.07715C37 7.28402 35.5412 5.8252 33.748 5.8252ZM33.3236 7.99316L32.8896 8.35456L19.7902 19.2624C19.0426 19.8849 17.9573 19.8849 17.2098 19.2624L4.1104 8.35456L3.67637 7.99316H33.3236ZM2.16797 9.55829L12.841 18.4457L2.16797 25.5489V9.55829ZM33.748 29.0067H3.25195C2.72817 29.0067 2.2901 28.6332 2.18972 28.1387L14.5793 19.8931L15.8226 20.9284C16.5983 21.5743 17.5492 21.8973 18.5001 21.8973C19.4509 21.8973 20.4018 21.5743 21.1776 20.9284L22.4208 19.8931L34.8104 28.1386C34.7099 28.6333 34.2718 29.0067 33.748 29.0067ZM34.832 25.5489L24.159 18.4458L34.832 9.55829V25.5489Z" fill="#FF7474"/>
</svg>
