<svg width="1393" height="345" viewBox="0 0 1393 345" fill="none" xmlns="http://www.w3.org/2000/svg">
<path d="M1240.17 60.4101L1374.92 77.7239C1394.47 80.2358 1399.5 106.23 1382.3 115.853C1375.31 119.762 1371.25 127.388 1371.9 135.368L1375.39 177.919C1378.59 217.013 1355.19 253.403 1318.3 266.725L1233.87 297.209C1197.11 310.482 1157.27 312.693 1119.26 303.569L1003.87 275.864L829.344 252.806C817.941 251.3 806.429 250.78 794.936 251.252L686.301 255.716C675.787 256.148 665.324 257.409 655.008 259.488L431.36 304.551L185.993 342.853C169.39 345.445 152.492 345.523 135.866 343.084L118.139 340.484C83.4522 335.397 52.4409 316.12 32.5264 287.268L15.8798 263.15C-7.09715 229.86 -4.59436 185.232 21.9606 154.72C30.9332 144.411 42.1705 136.318 54.7925 131.076L125.317 101.788C159.447 87.614 196.836 83.1736 233.337 88.9594L503.379 131.765C539.161 137.437 575.811 133.284 609.416 119.748L651.177 102.926C669.788 95.4298 689.422 90.7765 709.418 89.1228L877.88 75.1904C889.861 74.1996 901.728 72.1306 913.337 69.0085L1164.25 1.52896C1184.85 -4.01085 1205.73 9.44902 1209.19 30.498C1211.77 46.2186 1224.37 58.3799 1240.17 60.4101Z" fill="#FEFFCE" fill-opacity="0.21"/>
</svg>
