<svg width="1431" height="677" viewBox="0 0 1431 677" fill="none" xmlns="http://www.w3.org/2000/svg">
<path d="M176.153 543.008L39.849 483.794C7.62856 469.797 -2.81967 429.221 18.6333 401.403C27.8593 389.439 31.6437 374.154 29.0653 359.268L2.87329 208.05C-8.73977 141.002 19.0939 73.2311 74.4789 33.6998C133.783 -8.62873 212.961 -10.3112 274.01 29.4601L353.866 81.4838C362.89 87.3626 372.374 92.503 382.225 96.8546L544.232 168.415C565.021 177.598 587.223 183.171 609.884 184.893L684.788 190.587C709.235 192.445 733.815 189.792 757.302 182.761L956.17 123.229L1172.18 82.3545C1206.59 75.8415 1242.19 80.3679 1273.88 95.2874C1310.78 112.657 1340.01 142.983 1356 180.498L1434.79 365.312C1452.44 406.726 1455.61 452.886 1443.77 496.323L1436.33 523.634C1427.1 557.497 1408 587.844 1381.46 610.806C1327.7 657.312 1251.31 667.073 1187.58 635.579L960.072 523.14C909.012 497.905 847.884 505.077 804.051 541.445C778.839 562.364 747.257 574.077 714.502 574.659L587.288 576.917C559.128 577.417 531.392 583.858 505.894 595.82L351.758 668.131C300.031 692.398 239.206 662.024 227.526 606.094C221.654 577.975 202.5 554.454 176.153 543.008Z" fill="#FEFFCE" fill-opacity="0.14"/>
</svg>
