<svg width="1262" height="1076" viewBox="0 0 1262 1076" fill="none" xmlns="http://www.w3.org/2000/svg">
<path d="M819.38 52.6495L949.878 3.76765C981.891 -8.22367 1017.06 11.1211 1024.08 44.5782C1027.11 59.0205 1035.73 71.6756 1048.07 79.7755L1189.83 172.87C1239.08 205.205 1266.3 262.202 1260.49 320.824C1253.58 390.644 1201.55 447.592 1132.64 460.759L1047.18 477.087C1036.48 479.132 1025.96 482.047 1015.74 485.804L864.515 541.367C841.936 549.663 821.04 561.963 802.828 577.678L759.822 614.79C739.431 632.386 722.804 653.919 710.939 678.098L631.096 840.797L526.208 1004.19C507.297 1033.65 478.952 1055.82 445.806 1067.08C411.374 1078.78 373.921 1077.97 340.027 1064.8L141.453 987.608C103.088 972.695 70.2577 946.307 47.4435 912.046L25.8042 879.549C8.97782 854.28 -5.54341e-05 824.599 2.56705e-10 794.24C-1.73467e-05 727.212 43.3771 667.891 107.25 647.568L334.873 575.143C384.459 559.366 418.531 513.813 419.657 461.79C420.31 431.629 432.141 402.785 452.855 380.852L527.21 302.12C547.803 280.316 563.048 254.025 571.744 225.322L611.227 95.0019C628.028 39.5473 692.717 14.9488 742.119 45.2297C765.355 59.472 793.858 62.2094 819.38 52.6495Z" fill="#FEFFCE" fill-opacity="0.14"/>
</svg>
