<svg width="116" height="19" viewBox="0 0 116 19" fill="none" xmlns="http://www.w3.org/2000/svg">
<path d="M20.3555 18H14.8828L13.2422 10.5352C13.1641 10.2227 13.0391 9.60156 12.8672 8.67188C12.7031 7.74219 12.582 6.96484 12.5039 6.33984C12.4414 6.84766 12.3398 7.48047 12.1992 8.23828C12.0586 8.98828 11.918 9.67969 11.7773 10.3125C11.6445 10.9453 11.0781 13.5078 10.0781 18H4.60547L0.363281 0.867188H4.82812L6.69141 9.45703C7.11328 11.3555 7.40234 12.8672 7.55859 13.9922C7.66016 13.1953 7.83984 12.1133 8.09766 10.7461C8.36328 9.37891 8.60938 8.24609 8.83594 7.34766L10.3477 0.867188H14.6367L16.1016 7.34766C16.3516 8.38672 16.6055 9.58594 16.8633 10.9453C17.1211 12.3047 17.293 13.3203 17.3789 13.9922C17.4805 13.125 17.7578 11.6211 18.2109 9.48047L20.1094 0.867188H24.5742L20.3555 18ZM42.8203 9.41016C42.8203 12.293 42.1133 14.4844 40.6992 15.9844C39.2852 17.4844 37.2148 18.2344 34.4883 18.2344C31.8008 18.2344 29.7383 17.4805 28.3008 15.9727C26.8711 14.4648 26.1562 12.2695 26.1562 9.38672C26.1562 6.53516 26.8672 4.35938 28.2891 2.85938C29.7188 1.35156 31.793 0.597656 34.5117 0.597656C37.2383 0.597656 39.3047 1.34375 40.7109 2.83594C42.1172 4.32812 42.8203 6.51953 42.8203 9.41016ZM31.0312 9.41016C31.0312 12.7227 32.1836 14.3789 34.4883 14.3789C35.6602 14.3789 36.5273 13.9766 37.0898 13.1719C37.6602 12.3672 37.9453 11.1133 37.9453 9.41016C37.9453 7.69922 37.6562 6.4375 37.0781 5.625C36.5078 4.80469 35.6523 4.39453 34.5117 4.39453C32.1914 4.39453 31.0312 6.06641 31.0312 9.41016ZM64.418 18H58.9453L57.3047 10.5352C57.2266 10.2227 57.1016 9.60156 56.9297 8.67188C56.7656 7.74219 56.6445 6.96484 56.5664 6.33984C56.5039 6.84766 56.4023 7.48047 56.2617 8.23828C56.1211 8.98828 55.9805 9.67969 55.8398 10.3125C55.707 10.9453 55.1406 13.5078 54.1406 18H48.668L44.4258 0.867188H48.8906L50.7539 9.45703C51.1758 11.3555 51.4648 12.8672 51.6211 13.9922C51.7227 13.1953 51.9023 12.1133 52.1602 10.7461C52.4258 9.37891 52.6719 8.24609 52.8984 7.34766L54.4102 0.867188H58.6992L60.1641 7.34766C60.4141 8.38672 60.668 9.58594 60.9258 10.9453C61.1836 12.3047 61.3555 13.3203 61.4414 13.9922C61.543 13.125 61.8203 11.6211 62.2734 9.48047L64.1719 0.867188H68.6367L64.418 18Z" fill="#FF7474"/>
<path d="M81.3633 18L80.5195 14.7891H74.9531L74.0859 18H69L74.5898 0.796875H80.7656L86.4258 18H81.3633ZM79.5586 10.9922L78.8203 8.17969C78.6484 7.55469 78.4375 6.74609 78.1875 5.75391C77.9453 4.76172 77.7852 4.05078 77.707 3.62109C77.6367 4.01953 77.4961 4.67578 77.2852 5.58984C77.082 6.50391 76.625 8.30469 75.9141 10.9922H79.5586ZM100.723 6.31641C100.723 8.23047 100.156 9.71094 99.0234 10.7578C97.8984 11.7969 96.2969 12.3164 94.2188 12.3164H92.918V18H88.2891V0.867188H94.2188C96.3828 0.867188 98.0078 1.33984 99.0938 2.28516C100.18 3.23047 100.723 4.57422 100.723 6.31641ZM92.918 8.54297H93.7617C94.457 8.54297 95.0078 8.34766 95.4141 7.95703C95.8281 7.56641 96.0352 7.02734 96.0352 6.33984C96.0352 5.18359 95.3945 4.60547 94.1133 4.60547H92.918V8.54297ZM115.887 6.31641C115.887 8.23047 115.32 9.71094 114.188 10.7578C113.062 11.7969 111.461 12.3164 109.383 12.3164H108.082V18H103.453V0.867188H109.383C111.547 0.867188 113.172 1.33984 114.258 2.28516C115.344 3.23047 115.887 4.57422 115.887 6.31641ZM108.082 8.54297H108.926C109.621 8.54297 110.172 8.34766 110.578 7.95703C110.992 7.56641 111.199 7.02734 111.199 6.33984C111.199 5.18359 110.559 4.60547 109.277 4.60547H108.082V8.54297Z" fill="black"/>
</svg>
